<?xml version="1.0" encoding="UTF-8"?>
<svg xmlns="http://www.w3.org/2000/svg" id="Layer_2" data-name="Layer 2" viewBox="0 0 100 100" width="512" height="512"><path id="Global_Business" data-name="Global Business" d="M89,24.66a3.49,3.49,0,0,0-4.25,2.44,3.34,3.34,0,0,0,2.44,4.25,3.44,3.44,0,0,0,4.26-2.44A3.6,3.6,0,0,0,89,24.66ZM12.8,68.54A3.6,3.6,0,0,0,8.55,71,3.49,3.49,0,0,0,11,75.24a3.34,3.34,0,0,0,4.25-2.45,3.43,3.43,0,0,0-2.44-4.25Zm.95-3.29a5.46,5.46,0,0,1,2.66,1.49,1.25,1.25,0,0,0,1.06.1l9.78-5.74A.87.87,0,0,0,27.68,60a24.49,24.49,0,0,1,0-20.08.87.87,0,0,0-.43-1.06L18.86,34a.9.9,0,0,0-1.17.42c-.11.22-.22.53-.32.75h0a1.77,1.77,0,0,1-3.19.1.77.77,0,0,0-.85-.42,7.2,7.2,0,0,1-8.08-5,7,7,0,0,1,.85-5.63,7,7,0,0,1,12.65,5.1.78.78,0,0,0,.43.85l9.88,5.74a.75.75,0,0,0,1.06-.32,24.91,24.91,0,0,1,17.33-10,.84.84,0,0,0,.85-.85V19.24a.79.79,0,0,0-.64-.75,7,7,0,0,1-4.57-6.58,6.91,6.91,0,1,1,13.81,0,7,7,0,0,1-4.57,6.58.78.78,0,0,0-.63.75v5.52a.84.84,0,0,0,.85.85,24.91,24.91,0,0,1,17.32,10,.75.75,0,0,0,1.06.32l9.89-5.74a.77.77,0,0,0,.42-.85,7.56,7.56,0,0,1,.11-3.08A6.93,6.93,0,1,1,87,34.86a1.1,1.1,0,0,0-1,.53,1.72,1.72,0,0,1-3.19.21c-.11-.42-.43-.74-.53-1.17A1,1,0,0,0,81,34L72.74,38.9A.86.86,0,0,0,72.32,40a24.57,24.57,0,0,1,0,20.08.86.86,0,0,0,.42,1.06l9.78,5.74a1.25,1.25,0,0,0,1.06-.1,5.46,5.46,0,0,1,2.66-1.49,6.92,6.92,0,0,1,8.5,4.89,6.82,6.82,0,0,1-.64,5.2,7.23,7.23,0,0,1-4.25,3.3,7.58,7.58,0,0,1-8-3.62c-.42-.63-1.06-.53-1.59,0-1.28,1.81-4.15-.42-2.66-2.23a15.88,15.88,0,0,0,2-2.65A.8.8,0,0,0,79.33,69l-8.4-4.89a.82.82,0,0,0-1.06.21,24.65,24.65,0,0,1-17.32,10.1.84.84,0,0,0-.85.85v5.52a.78.78,0,0,0,.63.75,7.26,7.26,0,0,1,3.72,3.18.76.76,0,0,0,1,.43,6.49,6.49,0,0,0,1.38-.21,1.7,1.7,0,0,1,.85,3.29,9.59,9.59,0,0,1-1.7.42.79.79,0,0,0-.74.64A6.86,6.86,0,0,1,50,95a7,7,0,0,1-6.81-5.74c-.1-.32-.31-.64-.63-.64a15.15,15.15,0,0,1-2.24-.53,1.7,1.7,0,0,1,.86-3.29,9.5,9.5,0,0,1,1.8.42.92.92,0,0,0,1-.53,7.26,7.26,0,0,1,3.72-3.18.79.79,0,0,0,.64-.75V75.24a.84.84,0,0,0-.85-.85,24.65,24.65,0,0,1-17.33-10.1.82.82,0,0,0-1.06-.21L20.66,69a.79.79,0,0,0-.32,1.17c.54.85,1.17,1.59,1.7,2.33a1.73,1.73,0,0,1-2.55,2.34.86.86,0,0,0-1.38.21,7.15,7.15,0,0,1-8,3.62,6.93,6.93,0,1,1,3.61-13.39Zm51-29.33a17.51,17.51,0,0,1-4.25,1.59.89.89,0,0,0-.64,1.07,44.29,44.29,0,0,1,1.17,8.82.84.84,0,0,0,.85.85H70a.82.82,0,0,0,.85-1,21,21,0,0,0-5-11.16,1,1,0,0,0-1.06-.21Zm-9.25,2.44a54.42,54.42,0,0,1-11.05.11.93.93,0,0,0-1,.64,49.45,49.45,0,0,0-1.06,8.29c-.11.42.32.85.85.85H56.69a1,1,0,0,0,1-.85A61.43,61.43,0,0,0,56.48,39a.94.94,0,0,0-1-.64Zm-16.15-.63a20.4,20.4,0,0,1-4.47-1.38.79.79,0,0,0-1.06.21,20.45,20.45,0,0,0-4.67,10.73.81.81,0,0,0,.85,1h8.07a.84.84,0,0,0,.85-.85A52.48,52.48,0,0,1,40,38.79a.81.81,0,0,0-.64-1.06ZM38.62,34c.64.1,1.28.32,1.92.42a.75.75,0,0,0,1-.53c.22-.64.54-1.27.75-1.8a.82.82,0,0,0-1.06-1.17,22.11,22.11,0,0,0-2.77,1.48.88.88,0,0,0,.21,1.6ZM46,35.18A70.1,70.1,0,0,0,54,35.07a1,1,0,0,0,.75-1.27c-3-6.49-6.7-6.38-9.57.1A1,1,0,0,0,46,35.18Zm13.5-1c.53-.11,1.06-.32,1.59-.42a.88.88,0,0,0,.21-1.6c-.74-.42-1.59-.85-2.44-1.27a.84.84,0,0,0-1.07,1.17l.64,1.59a.94.94,0,0,0,1.07.53ZM61.05,52.6a44.47,44.47,0,0,1-1.17,8.72.88.88,0,0,0,.64,1.06,18.62,18.62,0,0,1,4.36,1.49.8.8,0,0,0,1.06-.22,20.21,20.21,0,0,0,4.89-10.94.82.82,0,0,0-.85-1H61.9a.84.84,0,0,0-.85.85ZM58.5,66.2c-.21.54-.53,1.17-.75,1.7a.84.84,0,0,0,1.07,1.17,14.62,14.62,0,0,0,2.55-1.38.88.88,0,0,0-.21-1.59c-.43-.11-1-.32-1.49-.43a.91.91,0,0,0-1.17.53ZM42.24,67.9c-.21-.53-.53-1.16-.75-1.8a.84.84,0,0,0-1-.53,8.71,8.71,0,0,0-1.81.53.8.8,0,0,0-.21,1.49,20.67,20.67,0,0,0,2.66,1.48.82.82,0,0,0,1.06-1.17Zm-2.13-6.58a44.47,44.47,0,0,1-1.17-8.72.84.84,0,0,0-.85-.85H30a.81.81,0,0,0-.85,1A20.63,20.63,0,0,0,34,63.55a.8.8,0,0,0,1.06.21,26.5,26.5,0,0,1,4.36-1.49.82.82,0,0,0,.74-1Zm2.34-8.72a49.45,49.45,0,0,0,1.06,8.29.93.93,0,0,0,1,.64,54.41,54.41,0,0,1,11.05,0,.83.83,0,0,0,1-.64,59.51,59.51,0,0,0,1.17-8.29,1,1,0,0,0-1-.85H43.3c-.53,0-1,.43-.85.85Zm2.76,13.5c3,6.48,6.59,6.59,9.57,0A.83.83,0,0,0,54,64.93,51.78,51.78,0,0,0,46,64.82a1,1,0,0,0-.75,1.28ZM32,81.08c-1-.64-1.81-1.17-2.77-1.81-1.91-1.38-3.82,1.6-2,2.87,1.07.64,2,1.28,3.08,1.92a1.72,1.72,0,0,0,1.71-3Zm-19.45-19A1.73,1.73,0,0,0,15.88,61h0c-.32-1.06-.64-2.13-.85-3.19-.42-2.13-3.83-1.59-3.4.64a19.35,19.35,0,0,0,1,3.61ZM10.78,47.72a1.7,1.7,0,1,0,3.4.21c.11-1.06.21-2.13.32-3.3a1.72,1.72,0,0,0-3.4-.53,22.09,22.09,0,0,0-.32,3.62ZM22.47,22c-1.7,1.6.85,4,2.34,2.45.85-.85,1.7-1.49,2.55-2.24a1.73,1.73,0,0,0-2.23-2.65A18.41,18.41,0,0,0,22.47,22Zm11.9-8.07a1.73,1.73,0,0,0,1.38,3.18,27.49,27.49,0,0,1,3.09-1.17,1.73,1.73,0,1,0-1.07-3.29,32.69,32.69,0,0,0-3.4,1.28Zm28.27-1.17a1.75,1.75,0,0,0-1.17,3.29h.11a24,24,0,0,1,3,1.17h.1A1.69,1.69,0,1,0,66,14.14V14c-1.16-.42-2.23-.85-3.4-1.27Zm12.54,7.12c-1.59-1.49-3.93,1.06-2.23,2.55v.1a23.67,23.67,0,0,1,2.45,2.13,1.69,1.69,0,1,0,2.44-2.34,18.41,18.41,0,0,0-2.66-2.44ZM88.89,44.53a1.72,1.72,0,1,0-3.4.53,30.33,30.33,0,0,1,.32,3.29h0a1.76,1.76,0,0,0,3.51-.1v-.11c-.11-1.17-.21-2.34-.32-3.51l-.11-.1ZM88.26,59a1.7,1.7,0,1,0-3.3-.85c-.32,1.06-.53,2.12-.95,3.19-.75,2.23,2.65,3.18,3.29,1.17a21.83,21.83,0,0,0,1-3.51ZM72.32,82.36a1.73,1.73,0,1,0-1.92-2.87c-.85.63-1.91,1.27-2.76,1.8a1.69,1.69,0,1,0,1.59,3,19.79,19.79,0,0,0,3.09-1.91ZM50,84.59a3.53,3.53,0,0,0-3.51,3.5,3.51,3.51,0,0,0,7,0,3.53,3.53,0,0,0-3.5-3.5ZM50,8.51a3.44,3.44,0,0,0-3.51,3.4,3.51,3.51,0,0,0,7,0A3.44,3.44,0,0,0,50,8.51Zm37.19,60a3.43,3.43,0,0,0-2.44,4.25A3.34,3.34,0,0,0,89,75.24,3.5,3.5,0,0,0,91.45,71a3.62,3.62,0,0,0-4.26-2.45ZM11,24.66a3.59,3.59,0,0,0-2.44,4.25,3.42,3.42,0,0,0,4.25,2.44,3.34,3.34,0,0,0,2.44-4.25A3.49,3.49,0,0,0,11,24.66Z"/></svg>
