<svg xmlns="http://www.w3.org/2000/svg" xmlns:xlink="http://www.w3.org/1999/xlink" xmlns:xodm="http://www.corel.com/coreldraw/odm/2003" xml:space="preserve" width="305.591mm" height="69.2414mm" style="shape-rendering:geometricPrecision; text-rendering:geometricPrecision; image-rendering:optimizeQuality; fill-rule:evenodd; clip-rule:evenodd" viewBox="0 0 34038.85 7712.59"> <defs> <style type="text/css"> .fil3 {fill:#003333;fill-rule:nonzero} .fil5 {fill:#225E63;fill-rule:nonzero} .fil7 {fill:#2BBC5D;fill-rule:nonzero} .fil4 {fill:#474C4E;fill-rule:nonzero} .fil0 {fill:#99BF00;fill-rule:nonzero} .fil2 {fill:#BDD06D;fill-rule:nonzero} .fil10 {fill:#C1D95B;fill-rule:nonzero} .fil9 {fill:#EBF2CC;fill-rule:nonzero} .fil8 {fill:#F5FFCC;fill-rule:nonzero} .fil1 {fill:#FDFFE3;fill-rule:nonzero} .fil6 {fill:#FEFEFE;fill-rule:nonzero} </style> </defs> <g id="Layer_x0020_1"> <metadata id="CorelCorpID_0Corel-Layer"></metadata> <path class="fil0" d="M32216.63 6890.7l-8369.14 0 0 -3820.34 10191.36 0 0 1997.87c0,1006.62 -815.76,1822.47 -1822.22,1822.47z"></path> <path class="fil1" d="M32009.96 6571.5l-7548.91 0 0 -3224.46 9140.52 0 0 1633.02c0,878.97 -712.49,1591.44 -1591.61,1591.44z"></path> <path class="fil0" d="M33601.25 5003.78c0,-0.31 0,-0.78 0,-1.17 0,0.39 0,0.86 0,1.17zm0 -4.78c0,-0.94 0.32,-1.72 0.32,-2.66 0,0.87 -0.32,1.8 -0.32,2.66zm0.32 -4.61c0,-1.1 0,-2.19 0,-3.22 0,1.02 0,2.12 0,3.22zm0 -4.31c0,-1.41 0,-2.9 0,-4.31 0,1.41 0,2.82 0,4.31zm0 -5.48c0,-1.57 0,-3.05 0,-4.54l0 -1633.02 0 1633.02c0,1.49 0,2.97 0,4.54z"></path> <path class="fil2" d="M25973.88 3427.85l-272.36 0c-19.66,-27.26 -40.1,-54.27 -60.85,-80.81l271.9 0c20.99,26.54 41.42,53.55 61.32,80.81z"></path> <path class="fil0" d="M23987.83 5978.76c0,-0.16 0,-0.31 0,-0.47 0,0.16 0,0.31 0,0.47zm0 -1.65c0,-0.39 0,-0.7 0,-1.01 0,0.31 0,0.62 0,1.01zm0 -1.87c0,-0.63 0,-1.18 0,-1.8l0 -464.71 0 464.71c0,0.62 0,1.17 0,1.8z"></path> <path class="fil3" d="M27090.88 6061.94l0 -545.83c98.91,83.09 206.12,145.43 322.41,186.7 116.05,41.5 233.21,62.33 351.15,62.33 69.07,0 129.61,-6.26 181.76,-18.87 51.68,-12.45 94.76,-29.68 129.3,-52.15 34.53,-21.78 60.76,-48.01 77.68,-78.24 17.39,-30.23 25.37,-62.8 25.37,-97.81 0,-47.85 -13.23,-90.69 -40.88,-127.96 -27.1,-37.52 -64.37,-72.28 -111.6,-104.08 -46.98,-31.87 -103.06,-62.64 -167.74,-92.09 -64.93,-29.67 -134.78,-59.9 -209.95,-90.6 -190.85,-79.33 -333.45,-176.67 -427.11,-291.4 -93.9,-114.56 -140.57,-253.57 -140.57,-415.99 0,-127.49 25.69,-236.82 76.75,-328.28 51.14,-91.63 120.75,-166.72 208.86,-226.02 87.86,-59.12 190.14,-102.51 305.88,-130.38 115.98,-27.8 238.93,-41.75 368.54,-41.75 127.1,0 240.03,7.67 338.38,23.02 98.35,15.27 188.97,38.92 272.13,70.56l0 510.12c-40.88,-28.5 -85.59,-53.41 -133.99,-75.25 -48.63,-21.54 -98.04,-39.48 -149.18,-53.64 -51.06,-14.1 -101.96,-24.67 -152.48,-31.49 -50.59,-6.81 -98.67,-10.34 -143.93,-10.34 -62.97,0 -119.66,6.12 -171.03,18.01 -50.83,11.99 -94.21,28.67 -129.29,50.2 -35.32,21.69 -62.73,47.53 -82.07,77.68 -19.04,30.07 -28.98,63.98 -28.98,101.42 0,41.03 11.05,77.68 32.58,109.87 21.85,32.34 52,63.11 92.33,92.17 39.48,28.89 87.78,57.48 144.73,85.2 56.62,27.88 120.99,56.7 192.57,86.15 98.04,41.03 185.67,84.42 263.29,130.62 77.92,45.8 144.79,97.89 200.55,155.91 55.53,57.95 98.12,124.13 128.2,198.76 29.28,74.47 43.93,161.17 43.93,259.92 0,136.49 -26,251.07 -77.37,343.63 -51.92,92.56 -122.09,167.5 -210.81,225.07 -88.34,57.4 -191.4,98.74 -309.41,123.57 -117.62,24.98 -241.68,37.43 -372.69,37.43 -134.22,0 -261.56,-11.35 -382.63,-33.98 -120.99,-22.71 -225.93,-56.85 -314.66,-102.2zm5483.6 93.59l-1455.89 0 0 -2445.12 550.61 0 0 1998.27 905.29 0 0 446.85zm-3525.98 -93.59l0 -545.83c98.91,83.09 206.36,145.43 322.41,186.7 116.07,41.5 233.13,62.33 351.15,62.33 69.3,0 129.84,-6.26 181.53,-18.87 51.92,-12.45 94.99,-29.68 129.84,-52.15 34.53,-21.78 60.45,-48.01 77.29,-78.24 17.47,-30.23 25.76,-62.8 25.76,-97.81 0,-47.85 -13.54,-90.69 -40.96,-127.96 -27.33,-37.52 -64.6,-72.28 -111.59,-104.08 -47.23,-31.87 -103.3,-62.64 -167.98,-92.09 -64.92,-29.67 -134.78,-59.9 -209.64,-90.6 -191.24,-79.33 -333.76,-176.67 -427.66,-291.4 -93.42,-114.56 -140.1,-253.57 -140.1,-415.99 0,-127.49 25.14,-236.82 76.51,-328.28 51.14,-91.63 120.75,-166.72 208.86,-226.02 87.86,-59.12 190.06,-102.51 305.88,-130.38 115.99,-27.8 239.25,-41.75 368.54,-41.75 127.03,0 240.03,7.67 338.69,23.02 98.05,15.27 188.66,38.92 271.82,70.56l0 510.12c-40.87,-28.5 -85.67,-53.41 -133.99,-75.25 -48.32,-21.54 -98.04,-39.48 -149.18,-53.64 -51.14,-14.1 -101.65,-24.67 -152.48,-31.49 -50.58,-6.81 -98.35,-10.34 -143.93,-10.34 -62.72,0 -119.34,6.12 -170.71,18.01 -51.14,11.99 -94.21,28.67 -129.61,50.2 -35.09,21.69 -62.41,47.53 -82.07,77.68 -19.35,30.07 -28.74,63.98 -28.74,101.42 0,41.03 10.8,77.68 32.1,109.87 22.09,32.34 52.47,63.11 92.25,92.17 39.79,28.89 88.11,57.48 145.35,85.2 56.62,27.88 120.68,56.7 192.25,86.15 98.04,41.03 185.68,84.42 263.29,130.62 78.15,45.8 145.03,97.89 200.55,155.91 55.84,57.95 98.37,124.13 128.2,198.76 29.29,74.47 44.16,161.17 44.16,259.92 0,136.49 -25.92,251.07 -77.29,343.63 -52.23,92.56 -122.4,167.5 -210.81,225.07 -88.73,57.4 -191.71,98.74 -309.72,123.57 -117.39,24.98 -241.74,37.43 -372.68,37.43 -134,0 -261.33,-11.35 -382.64,-33.98 -120.99,-22.71 -225.93,-56.85 -314.66,-102.2z"></path> <path class="fil4" d="M22649.55 3347.03l2039.71 0 0 -1383.45c0,-562.05 -457.5,-1019.46 -1019.7,-1019.46 -562.19,0 -1020,457.41 -1020,1019.46l0 1383.45zm2942.55 944.04l-3845.09 0 0 -2368.21c0,-1060.1 862.21,-1922.86 1922.54,-1922.86 1060.26,0 1922.55,862.76 1922.55,1922.86l0 2368.21z"></path> <rect class="fil0" x="21051.95" y="2730.41" width="5082.96" height="4595.54" rx="626.66" ry="626.66"></rect> <g id="_1280260959056"> <g id="Page-1"> <g> <g> <path class="fil5" d="M12074.32 4789.06l176.83 53.05c-11.78,50.1 -29.47,91.36 -55.99,123.78 -26.52,32.41 -55.99,58.95 -94.31,73.68 -38.32,17.69 -85.47,26.52 -144.41,26.52 -70.73,0 -126.72,-8.84 -173.88,-29.47 -44.21,-20.63 -82.52,-55.99 -114.94,-109.05 -32.41,-50.1 -50.1,-117.88 -50.1,-197.46 0,-106.1 29.47,-188.61 85.47,-247.56 55.99,-58.95 138.51,-85.47 241.67,-85.47 82.52,0 144.41,17.69 191.56,50.1 47.15,32.41 82.52,82.52 103.14,153.25l-176.83 38.32c-5.89,-20.63 -11.78,-35.37 -20.63,-44.21 -11.78,-14.74 -23.58,-26.52 -41.26,-35.37 -17.69,-8.84 -35.37,-11.78 -53.05,-11.78 -44.21,0 -79.57,17.69 -103.14,55.99 -17.69,26.52 -26.52,70.73 -26.52,126.72 0,70.73 11.78,120.83 32.41,147.35 20.63,26.52 53.05,41.26 91.36,41.26 38.32,0 67.78,-11.78 85.47,-32.41 23.58,-26.53 38.32,-55.99 47.16,-97.26z"></path> <path class="fil5" d="M12321.87 4730.13c0,-106.1 29.47,-188.61 88.42,-247.56 58.95,-58.95 141.46,-88.42 247.56,-88.42 109.05,0 191.56,29.47 250.51,85.47 58.95,58.95 88.42,138.51 88.42,244.61 0,76.62 -11.78,138.51 -38.32,185.67 -26.52,47.15 -61.89,85.47 -111.99,111.99 -47.15,26.52 -109.05,41.26 -179.78,41.26 -73.68,0 -132.62,-11.78 -182.72,-35.37 -47.15,-23.58 -85.47,-58.95 -117.88,-111.99 -32.41,-53.04 -44.22,-109.04 -44.22,-185.66zm200.4 0c0,64.84 11.78,111.99 35.37,141.46 23.58,29.47 55.99,44.21 100.2,44.21 44.21,0 76.62,-14.74 100.2,-41.26 23.58,-29.47 35.37,-79.57 35.37,-150.31 0,-61.89 -11.78,-106.1 -38.32,-132.62 -23.58,-29.47 -58.95,-41.26 -100.2,-41.26 -41.26,0 -73.68,14.74 -97.25,44.21 -23.57,23.57 -35.37,70.72 -35.37,135.56z"></path> <polygon class="fil5" points="13099.91,4405.94 13362.21,4405.94 13462.41,4800.85 13562.61,4405.94 13824.9,4405.94 13824.9,5054.3 13659.86,5054.31 13659.86,4559.19 13533.13,5054.31 13385.78,5054.31 13259.05,4559.19 13259.05,5054.31 13094.01,5054.31 13094.01,4405.94 "></polygon> <path class="fil5" d="M13954.57 4405.94l333.02 0c73.68,0 126.72,17.69 162.09,53.05 35.37,35.37 53.05,82.52 53.05,147.35 0,64.84 -20.63,117.88 -58.95,153.25 -38.32,38.32 -100.2,55.99 -179.78,55.99l-109.05 0.01 0 241.67 -200.4 -0.01 0 -651.31zm200.4 277.03l50.1 0c38.32,0 64.84,-5.89 82.52,-20.63 14.74,-14.74 23.58,-29.47 23.58,-50.1 0,-20.63 -5.89,-38.32 -20.63,-53.05 -14.74,-14.74 -38.32,-20.63 -76.62,-20.63l-55.99 0.01 0 144.4 -2.95 0z"></path> <polygon class="fil5" points="14608.83,4405.94 14809.24,4405.94 14809.24,4895.16 15121.63,4895.16 15121.63,5054.31 14608.83,5054.31 "></polygon> <polygon class="fil5" points="15221.84,4405.94 15422.23,4405.94 15422.23,5054.3 15221.84,5054.31 "></polygon> <path class="fil5" d="M15964.51 4945.26l-226.93 0 -32.41 106.1 -203.36 0 244.61 -648.36 218.1 0 244.61 648.36 -209.24 0 -35.37 -106.1zm-41.27 -138.51l-70.73 -232.82 -70.73 232.82 141.46 0z"></path> <polygon class="fil5" points="16271,4405.94 16456.67,4405.94 16701.27,4765.48 16701.27,4405.94 16889.89,4405.94 16889.89,5054.3 16701.27,5054.31 16459.61,4697.7 16459.61,5054.31 16271,5054.31 "></polygon> <polygon class="fil5" points="16978.3,4405.94 17588.35,4405.94 17588.35,4565.08 17385,4565.08 17385,5054.31 17184.6,5054.31 17184.6,4565.08 16981.25,4565.08 16981.25,4405.94 "></polygon> </g> <g id="Rectangle-3-2B-Letters"> <path id="Rectangle-3" class="fil5" d="M9663.58 5393.22l580.57 -182.72 -188.61 -418.49c-138.5,173.88 -277.02,397.86 -391.96,601.21zm-197.46 -1912.67l-1137.58 -2534.52 -8328.54 471.53 2307.59 6295.03 4441.29 -1399.88c-282.92,-406.71 -386.07,-890.03 -58.95,-1125.8 365.44,-265.25 916.55,41.26 1267.26,474.49 338.93,-565.83 1290.84,-1883.19 1508.93,-2180.85z"></path> <g id="Letters"> <path id="Oval-1" class="fil6" d="M8069.07 2777.66c347.76,0 630.68,-265.25 630.68,-595.32 0,-330.07 -282.92,-595.32 -630.68,-595.32 -347.76,0 -630.68,265.25 -630.68,595.32 0,327.13 282.92,595.32 630.68,595.32zm-515.74 256.4l1031.49 0 0 2696.6 -1031.49 0 0 -2696.6z"></path> <path id="Path-3" class="fil6" d="M7043.48 3820.94c8.84,2.95 14.74,0 14.74,-8.84l0 -683.73c0,-8.84 -5.89,-17.69 -14.74,-23.58 0,0 -135.57,-88.42 -548.17,-111.99 -20.63,-11.78 -383.13,-14.74 -480.38,0 -1503.03,120.83 -1559.03,1208.32 -1559.03,1255.48l0 265.23c0,32.41 0,1143.48 1559.03,1240.74 153.25,11.78 450.91,0 480.38,0 359.55,0 607.1,-109.05 607.1,-109.05 8.84,-2.95 14.74,-11.78 14.74,-20.63l0 -639.53c0,-8.84 -5.89,-11.78 -11.78,-5.89 0,0 -111.99,88.42 -601.21,138.51 -138.51,14.74 -206.3,8.84 -256.4,0 -695.52,-117.88 -727.94,-624.79 -727.94,-624.79 0,-8.84 -2.95,-23.58 -2.95,-29.47l0 -194.5c0,-8.84 0,-23.58 2.95,-29.47 0,0 47.15,-545.22 727.94,-604.16l256.4 0.01c297.66,38.32 539.32,185.67 539.32,185.67z"></path> <path id="Path-1" class="fil6" d="M1591.33 5721.82c0,8.84 5.89,14.74 14.74,14.74l1004.96 0c8.84,0 14.74,-5.89 14.74,-14.74l0 -783.93c0,-8.84 5.89,-14.74 14.74,-14.74 0,0 1606.17,114.94 1606.17,-960.75 0,-851.72 -1007.91,-943.08 -1337.98,-928.34 -5.89,0 -1302.63,0 -1302.63,0 -8.84,0 -14.74,5.89 -14.74,14.74l0.01 2673.02zm1016.75 -1396.93l0 -704.34 247.56 -0.01c0,0 356.61,14.74 386.07,259.34 5.89,17.69 5.89,138.51 0,144.41 -47.15,285.86 -356.61,300.6 -356.61,300.6l-277.02 0z"></path> </g> <path id="Path-7" class="fil7" d="M8098.67 7031.82c82.52,0 147.35,0 253.45,-47.15 365.44,-191.56 1600.29,-3206.45 2902.9,-4134.79 8.84,-5.89 17.69,-14.74 23.58,-23.58 8.84,-11.78 8.84,-23.58 8.84,-23.58 0,0 0,-61.89 -191.56,-61.89 -1158.2,-32.41 -2363.58,2398.94 -2997.2,3359.7 -8.84,11.78 -50.1,0 -50.1,0 0,0 -424.38,-501.01 -792.77,-692.57 -8.84,-2.95 -50.1,-17.69 -94.31,-14.74 -29.47,0 -200.41,35.37 -279.97,117.88 -94.31,100.2 -91.36,156.2 -91.36,277.03 0,8.84 5.89,50.1 17.69,70.73 91.36,159.15 501.01,725 839.92,1037.38 50.08,38.32 129.65,135.57 450.89,135.57z"></path> </g> <g> <path class="fil5" d="M11596.88 1939.21l963.71 0c191.56,0 344.81,26.52 459.75,76.62 117.88,53.05 215.14,126.72 288.82,221.04 76.62,97.25 132.62,209.24 165.04,335.98 35.37,126.72 53.05,262.29 53.05,406.71 0,223.98 -26.52,397.86 -76.62,521.64 -50.1,123.78 -120.83,226.93 -212.19,312.4 -91.36,82.52 -188.61,138.51 -291.77,167.98 -141.46,38.32 -271.14,55.99 -386.07,55.99l-963.72 0 0 -2098.35zm648.36 474.49l0 1146.43 159.15 0c135.57,0 232.82,-14.74 288.82,-44.21 55.99,-29.47 103.14,-82.52 135.57,-156.2 32.41,-73.68 50.1,-197.46 50.1,-365.44 0,-223.98 -35.37,-374.28 -109.05,-456.8 -73.68,-82.52 -191.56,-123.78 -362.5,-123.78l-162.09 0z"></path> <path class="fil5" d="M13707.02 3344.98l618.9 -38.32c14.74,100.2 41.26,176.83 82.52,229.88 67.78,85.47 162.09,126.72 285.87,126.72 91.36,0 165.04,-20.63 215.14,-64.84 50.1,-44.21 76.62,-94.31 76.62,-150.31 0,-53.05 -23.58,-103.14 -70.73,-147.35 -47.15,-44.21 -159.15,-82.52 -333.02,-120.83 -285.87,-64.84 -486.27,-150.31 -610.06,-256.4 -123.78,-106.1 -182.72,-241.67 -182.72,-406.71 0,-109.05 32.41,-209.24 94.31,-306.5 61.89,-97.25 156.2,-170.93 282.92,-226.93 126.72,-55.99 297.66,-82.52 515.74,-82.52 268.19,0 474.49,50.1 613,150.31 141.46,100.2 223.98,259.34 250.51,477.44l-613 35.37c-17.69,-94.31 -50.1,-162.09 -103.14,-206.3 -53.05,-44.21 -123.78,-64.84 -215.14,-64.84 -76.62,0 -132.62,14.74 -170.93,47.15 -38.32,32.41 -55.99,70.73 -55.99,117.88 0,32.41 14.74,64.84 47.15,91.36 29.47,26.52 103.14,53.05 218.08,76.62 282.92,61.89 486.27,123.78 610.06,185.67 123.78,61.89 212.19,141.46 268.19,232.82 55.99,91.36 82.52,197.46 82.52,312.4 0,135.57 -38.32,259.34 -111.99,371.34 -73.68,114.94 -179.78,200.41 -312.4,259.34 -132.62,58.95 -303.55,88.42 -506.9,88.42 -356.61,0 -604.16,-67.78 -742.67,-206.3 -135.58,-138.5 -212.2,-312.38 -232.83,-524.58z"></path> </g> <g> <path class="fil5" d="M15778.84 3344.98l618.9 -38.32c14.74,100.2 41.26,176.83 82.52,229.88 67.78,85.47 162.09,126.72 285.86,126.72 91.36,0 165.04,-20.63 215.14,-64.84 50.1,-44.21 76.62,-94.31 76.62,-150.31 0,-53.05 -23.58,-103.14 -70.73,-147.35 -47.15,-44.21 -159.15,-82.52 -333.01,-120.83 -285.87,-64.84 -486.27,-150.31 -610.06,-256.4 -120.83,-106.1 -182.72,-241.67 -182.72,-406.71 0,-109.05 32.41,-209.24 94.31,-306.5 61.89,-97.25 156.2,-170.93 282.92,-226.93 126.72,-55.99 297.66,-82.52 515.73,-82.52 268.19,0 474.49,50.1 613,150.31 141.46,100.2 223.98,259.34 250.51,477.44l-613 35.37c-17.69,-94.31 -50.1,-162.09 -103.14,-206.3 -53.05,-44.21 -123.78,-64.84 -215.14,-64.84 -76.61,0 -132.61,14.74 -170.92,47.15 -38.32,32.41 -55.99,70.73 -55.99,117.88 0,32.41 14.74,64.84 47.15,91.36 29.47,26.52 103.14,53.05 218.07,76.62 282.92,61.89 486.27,123.78 610.06,185.67 123.78,61.89 212.19,141.46 268.19,232.82 55.99,91.36 82.52,197.46 82.52,312.4 0,135.57 -38.32,259.34 -111.99,371.34 -73.68,114.94 -179.78,200.41 -312.4,259.34 -132.62,58.95 -303.55,88.42 -506.9,88.42 -356.59,0 -604.15,-67.78 -742.66,-206.3 -138.52,-138.5 -215.16,-312.38 -232.83,-524.58z"></path> </g> </g> </g> </g> <path class="fil8" d="M22649.55 1960.91c0,-0.47 0,-0.78 0,-1.25 0,0.47 0,0.86 0,1.25zm0 -1.87c0.87,-167.83 42.29,-326.25 115.2,-465.64 5.01,-6.18 10.26,-12.3 15.51,-18.32 -80.11,144.32 -129.83,307.76 -130.7,483.97z"></path> <path class="fil9" d="M23346.29 1001.53c4.47,-3.13 8.86,-6.18 13.31,-9.32 96.95,-30.93 200.25,-47.76 307.22,-48.07 -112.77,0.31 -219.11,23.18 -320.53,57.4z"></path> <path class="fil9" d="M23674.81 7387.9c0.25,0 0.79,0 1.1,0 -0.31,0 -0.86,0 -1.1,0zm6.04 0c0.31,0 0.31,0 0.31,0l-0.31 0zm6.1 0c0,0 0.31,0 0.55,0 -0.23,0 -0.55,0 -0.55,0zm-2518.73 -2501.18c0,-1.41 0,-2.58 0,-3.92 0,1.18 0,2.58 0,3.92zm0 -6.51c0,-0.31 0,-0.62 0,-1.09 0,0.47 0,0.78 0,1.09z"></path> <path class="fil10" d="M23623.43 6335.16c-176.04,0 -318.57,-142.45 -318.57,-318.33l0 -477.07c-175.97,-108.62 -300.01,-294.77 -300.01,-517.09 0,-188.97 84.81,-358.04 218.25,-471.51 -106.65,111.2 -172.13,261.95 -172.13,428.05 0,222.64 124.04,408.47 300.01,517.4l0 476.84c0,175.89 142.61,318.33 318.57,318.33 72.91,0 140.02,-24.51 193.67,-65.79 -58.34,66.97 -144.25,109.17 -239.79,109.17zm364.39 -826.42l0 -12.13c29.52,-18.09 57.48,-38.53 83.4,-60.69 -25.69,26.39 -53.57,50.83 -83.4,72.82z"></path> <path class="fil1" d="M24287.83 4979.2c0,-341.6 -276.83,-618.35 -618.28,-618.35 -341.75,0 -618.58,276.75 -618.58,618.35 0,222.64 124.04,408.47 300.01,517.4l0 476.84c0,175.89 142.61,318.33 318.57,318.33 175.66,0 318.27,-142.44 318.27,-318.33l0 -476.84c176.27,-108.94 300.01,-294.76 300.01,-517.4z"></path> </g> </svg>